<?xml version="1.0" encoding="UTF-8" standalone="no"?>
<!-- Created with Inkscape (http://www.inkscape.org/) -->

<svg
   width="75.078156mm"
   height="121.51865mm"
   viewBox="0 0 75.078156 121.51865"
   version="1.1"
   id="svg1"
   inkscape:export-filename="logo.png"
   inkscape:export-xdpi="96"
   inkscape:export-ydpi="96"
   inkscape:version="1.3.2 (091e20e, 2023-11-25, custom)"
   sodipodi:docname="logo.svg"
   xmlns:inkscape="http://www.inkscape.org/namespaces/inkscape"
   xmlns:sodipodi="http://sodipodi.sourceforge.net/DTD/sodipodi-0.dtd"
   xmlns="http://www.w3.org/2000/svg"
   xmlns:svg="http://www.w3.org/2000/svg">
  <sodipodi:namedview
     id="namedview1"
     pagecolor="#ffffff"
     bordercolor="#000000"
     borderopacity="0.25"
     inkscape:showpageshadow="2"
     inkscape:pageopacity="0.0"
     inkscape:pagecheckerboard="0"
     inkscape:deskcolor="#d1d1d1"
     inkscape:document-units="mm"
     inkscape:zoom="1.4485269"
     inkscape:cx="51.431561"
     inkscape:cy="251.63495"
     inkscape:window-width="1920"
     inkscape:window-height="1009"
     inkscape:window-x="-8"
     inkscape:window-y="-8"
     inkscape:window-maximized="1"
     inkscape:current-layer="layer1" />
  <defs
     id="defs1" />
  <g
     inkscape:label="Layer 1"
     inkscape:groupmode="layer"
     id="layer1"
     transform="translate(-41.69013,-54.048885)">
    <text
       xml:space="preserve"
       style="font-size:12.7px;line-height:0.2;font-family:'Leelawadee UI';-inkscape-font-specification:'Leelawadee UI';letter-spacing:0.264583px;fill:#059598;fill-opacity:1;stroke:none;stroke-width:1.008;stroke-opacity:1"
       x="42.499664"
       y="175.41872"
       id="text229"><tspan
         sodipodi:role="line"
         id="tspan229"
         style="font-size:12.7px;line-height:0.2;fill:#059598;fill-opacity:1;stroke-width:1.008"
         x="42.499664"
         y="175.41872">SEEDBiomed</tspan></text>
    <g
       id="g230"
       transform="translate(-173.14359,10.617928)">
      <path
         style="fill:#c2bdbd;fill-opacity:1;stroke:#f69318;stroke-width:0.740557;stroke-opacity:1"
         d="m 248.52107,151.45806 c -10.70598,-1.38618 -19.26037,-5.90405 -25.61319,-13.52721 -3.97583,-4.77085 -6.36385,-10.46395 -7.43007,-17.71341 -0.3442,-2.34036 -0.35046,-9.90272 -0.01,-11.8543 1.29352,-7.41042 3.20199,-13.036335 6.94592,-20.475629 3.69062,-7.33338 8.66957,-14.771477 17.44248,-26.057476 4.3913,-5.649242 8.05549,-10.877574 10.25923,-14.638604 1.09255,-1.864611 2.0816,-3.390195 2.1979,-3.390195 0.11629,0 0.84053,1.102156 1.60943,2.449236 2.42283,4.244724 6.1532,9.51155 13.11459,18.516234 3.83525,4.960954 6.01873,7.973821 8.52002,11.756344 3.19785,4.835874 4.20503,6.540651 6.36684,10.776644 5.86148,11.485427 8.26826,21.304506 7.46823,30.468516 -1.10983,12.71249 -7.24355,22.61518 -17.75499,28.66486 -2.98986,1.72077 -8.63489,3.85296 -11.48028,4.33626 l -0.70785,0.12023 -0.7903,-2.50206 c -0.43466,-1.37612 -1.24494,-4.04507 -1.80061,-5.93098 -0.55566,-1.88591 -1.31156,-4.44292 -1.67976,-5.68223 -1.47329,-4.95877 -1.74594,-6.37599 -1.75286,-9.11116 -0.0107,-4.23384 1.00187,-6.90483 3.59713,-9.48845 1.7375,-1.72971 3.08253,-2.57025 5.57105,-3.48152 0.98887,-0.36211 2.10656,-0.80256 2.48374,-0.97877 0.37718,-0.1762 1.01235,-0.33281 1.4115,-0.34802 1.96426,-0.0748 2.50477,-2.81902 0.73546,-3.73396 -1.15745,-0.59854 -2.2857,-0.0945 -2.74634,1.22686 -0.19825,0.5687 -0.37732,0.6626 -2.68885,1.41 -3.00999,0.97323 -4.60143,1.89053 -6.69212,3.85731 -0.876,0.82407 -1.62617,1.46443 -1.66703,1.42302 -0.0409,-0.0414 0.014,-0.56001 0.12198,-1.15242 0.6227,-3.41701 2.86053,-5.57312 9.85992,-9.49982 3.13103,-1.75653 5.26896,-3.21153 6.61221,-4.50002 0.51148,-0.49064 1.11245,-0.89207 1.33547,-0.89207 0.88463,0 1.7513,-0.96966 1.7513,-1.95939 0,-0.675899 -0.5542,-1.540066 -1.20275,-1.875442 -1.25029,-0.64655 -2.58284,0.13256 -2.83919,1.659992 -0.0973,0.579767 -0.36742,0.9048 -1.51769,1.8262 -2.16777,1.73645 -5.79785,3.86603 -5.54341,3.25204 0.20269,-0.48913 1.08622,-3.3972 1.59648,-5.25467 0.65293,-2.376799 1.30365,-3.437877 3.46698,-5.653275 1.29184,-1.322931 1.87973,-1.7924 2.24452,-1.7924 0.28502,0 0.7367,-0.242458 1.06699,-0.572746 1.28279,-1.282793 0.39769,-3.346036 -1.43538,-3.346036 -1.05285,0 -1.6712,0.559705 -1.85248,1.676769 -0.10214,0.629414 -0.46556,1.093136 -2.21016,2.820226 -2.52262,2.497291 -3.13088,3.565174 -3.94318,6.922752 -0.6777,2.80124 -1.16563,4.13646 -2.06427,5.64889 -0.63487,1.0685 -2.61536,3.09964 -4.36478,4.4764 l -0.86094,0.67754 0.12993,-1.06942 c 0.0937,-0.77124 0.57088,-1.96102 1.71144,-4.26726 1.97445,-3.99236 2.33959,-5.024867 2.47337,-6.993782 0.0882,-1.297723 0.0167,-1.918598 -0.41143,-3.576676 -0.71953,-2.786286 -0.6047,-3.126979 1.93264,-5.734347 1.44742,-1.487356 1.55976,-1.56079 2.38762,-1.56079 1.35367,0 2.26904,-1.162497 1.94186,-2.466106 -0.22722,-0.905324 -0.96714,-1.452669 -1.96376,-1.452669 -0.98653,0 -1.57499,0.417496 -1.78871,1.269018 -0.0776,0.308997 -0.73495,0.972055 -1.74807,1.763162 -2.81007,2.19427 -4.21172,4.115497 -4.21172,5.773004 0,0.278265 0.30772,1.38676 0.68382,2.463315 1.00346,2.872376 0.89985,3.911377 -0.72761,7.296391 -0.84547,1.75854 -1.13184,2.03642 -1.13184,1.09829 0,-0.63922 -0.52857,-1.89992 -1.46666,-3.498219 -1.43351,-2.442353 -1.51272,-2.769346 -1.35843,-5.607545 0.13344,-2.454909 0.12536,-2.529157 -0.38984,-3.5822 -0.5733,-1.171783 -2.76363,-3.369386 -4.44254,-4.457278 -0.5304,-0.343686 -0.96385,-0.774053 -0.96385,-0.957 0,-0.493729 -0.7061,-1.300262 -1.32141,-1.509351 -1.92805,-0.655178 -3.46817,1.850896 -2.02462,3.294449 0.47826,0.478266 0.73222,0.572739 1.53957,0.572739 0.95988,0 0.97889,0.01251 2.64181,1.737524 2.36205,2.450251 2.68555,3.214262 2.32029,5.479818 -0.29027,1.800346 -0.0179,2.850796 1.55542,5.999743 1.56563,3.13349 1.95087,4.65025 1.95087,7.681 v 1.85752 l -0.63681,-0.44024 c -0.35024,-0.24214 -1.39031,-1.196 -2.31127,-2.11969 -1.42637,-1.43059 -1.82466,-1.98429 -2.68797,-3.7368 -0.55742,-1.13155 -1.28917,-3.02726 -1.62612,-4.212689 -0.93642,-3.294452 -1.46518,-4.160897 -4.13582,-6.777025 -1.80403,-1.767206 -2.31774,-2.385386 -2.31774,-2.789041 0,-0.295334 -0.24444,-0.792174 -0.56777,-1.154047 -1.74097,-1.948487 -4.52897,0.766773 -2.84375,2.769557 0.37091,0.440802 0.67501,0.60285 1.13131,0.60285 0.52515,0 0.93702,0.305191 2.59897,1.925841 2.25257,2.196603 2.83222,3.18358 3.80259,6.474814 0.3296,1.11795 0.86051,2.60876 1.17979,3.3129 0.31927,0.70415 0.54571,1.31505 0.5032,1.35755 -0.0897,0.0897 -3.40966,-1.63035 -4.69747,-2.43373 -0.48183,-0.30059 -1.65542,-1.15941 -2.60797,-1.9085 l -1.7319,-1.361981 v -1.479133 c 0,-1.323686 -0.0603,-1.56293 -0.57421,-2.276494 -2.04654,-2.841828 -5.49008,-2.856387 -7.23713,-0.03058 -1.60147,2.590313 -0.17154,5.739088 2.92048,6.431048 0.93341,0.20889 1.19701,0.19028 2.26506,-0.1599 l 1.20873,-0.3963 1.49229,1.20053 c 2.17402,1.74896 3.32489,2.46629 7.23637,4.51035 5.44168,2.84369 7.30576,4.16599 8.5814,6.08725 0.62376,0.93943 1.27897,3.27674 0.99748,3.55824 -0.057,0.057 -0.74925,-0.43845 -1.53834,-1.10099 -2.12999,-1.78841 -4.87068,-2.99748 -8.64122,-3.81211 -0.35841,-0.0774 -0.53882,-0.24135 -0.53882,-0.48953 0,-0.52606 -0.88182,-1.51176 -1.4887,-1.66408 -0.77151,-0.19364 -1.80547,0.2295 -2.13959,0.87562 -0.81195,1.57014 0.14137,3.12843 1.91388,3.12843 0.36099,0 0.7401,0.0771 0.84247,0.17138 0.10239,0.0943 1.02379,0.40401 2.04757,0.68835 4.74198,1.31701 8.05162,3.88898 8.9461,6.95211 0.28462,0.97472 0.29305,1.34313 0.0723,3.15933 -0.13746,1.13077 -0.28622,2.15052 -0.33058,2.26613 -0.0444,0.11559 -0.7608,-0.45918 -1.5921,-1.27726 -2.04946,-2.01691 -4.38137,-3.52808 -9.23759,-5.98632 -2.25278,-1.14037 -4.63346,-2.42081 -5.29041,-2.84541 -1.18086,-0.76323 -1.19309,-0.78049 -1.07523,-1.51753 0.38689,-2.41948 -1.83588,-4.92266 -4.38326,-4.93623 -1.90589,-0.0101 -3.70102,1.42928 -4.15797,3.33408 -0.8404,3.50318 2.96315,6.39861 6.31353,4.80615 0.71248,-0.33865 0.73956,-0.33685 1.3375,0.0889 0.33567,0.23902 2.62046,1.46882 5.07732,2.7329 2.45686,1.26408 5.11589,2.73019 5.90897,3.25802 1.75794,1.16999 4.66538,4.01639 5.9371,5.81244 1.34803,1.90385 2.07679,3.79097 4.06584,10.52846 0.97035,3.28688 2.10652,7.03013 2.52482,8.31833 0.41829,1.28822 0.7124,2.39037 0.65356,2.44925 -0.18518,0.18529 -6.18275,0.18325 -7.6181,-0.002 z"
         id="path55" />
      <path
         id="path56"
         style="fill:#059598;fill-opacity:1;stroke-width:0.740557"
         d="m 265.60465,139.29451 c 0.17188,-0.32116 0.0361,-0.91987 -0.69874,-3.08155 -1.52763,-4.49365 -1.61532,-6.84696 -0.35175,-9.4391 0.99363,-2.03837 3.50861,-4.05168 5.84753,-4.68109 0.42834,-0.11527 1.7928,-0.34795 3.03211,-0.51706 3.86749,-0.52774 5.32976,-1.25967 6.18459,-3.09569 0.54826,-1.17755 0.59492,-2.03973 0.18323,-3.38611 -0.27101,-0.88632 -0.26776,-0.97724 0.0414,-1.15779 1.36276,-0.79587 1.76516,-1.91657 1.09532,-3.05052 -0.32325,-0.54722 -0.31907,-0.57864 0.1425,-1.06996 0.65304,-0.69513 0.62776,-1.71451 -0.0684,-2.75558 -0.60492,-0.90471 -0.5594,-1.23072 0.23759,-1.70151 1.05278,-0.6219 1.98067,-1.84199 1.98067,-2.6044 0,-1.01656 -0.20258,-1.28129 -2.22576,-2.908545 -2.1527,-1.731422 -4.02729,-3.679205 -4.50031,-4.676032 -0.18529,-0.39048 -0.45994,-1.763347 -0.61034,-3.05082 -0.27285,-2.335828 -0.88909,-4.942018 -1.40719,-5.951182 -0.40897,-0.796617 -0.93207,-1.009298 -1.61449,-0.6564 -0.70532,0.364731 -0.81648,0.772749 -0.51294,1.882688 0.73899,2.702196 0.88195,3.400445 1.06156,5.184906 0.37665,3.742263 1.01654,4.886187 4.63156,8.279805 l 2.14086,2.00975 -0.58782,0.43869 c -1.51213,1.12851 -1.83891,1.83284 -1.53614,3.31091 0.17616,0.85992 0.14801,0.99672 -0.36102,1.75464 -0.30364,0.45211 -0.55208,0.90856 -0.55208,1.01433 0,0.10577 0.32064,0.4947 0.71254,0.8643 l 0.71253,0.67201 -0.59105,0.62473 c -1.12631,1.1905 -1.22546,1.69137 -0.72304,3.65252 0.28737,1.12171 0.28425,1.24439 -0.049,1.92623 -0.53582,1.09637 -1.63565,1.55273 -4.57593,1.89874 -2.87236,0.33802 -4.12871,0.67977 -5.89828,1.60446 -4.00706,2.09388 -6.30866,6.96524 -5.45879,11.55352 0.31776,1.71551 1.84592,6.49417 2.26791,7.09191 0.62605,0.88678 1.582,0.89573 2.05111,0.0192 z" />
      <ellipse
         style="fill:#059598;fill-opacity:1;stroke:none;stroke-width:1.008;stroke-opacity:1"
         id="path230"
         cx="227.83449"
         cy="88.828331"
         rx="0.90410519"
         ry="0.93639463" />
      <ellipse
         style="fill:#059598;fill-opacity:1;stroke:none;stroke-width:1.44;stroke-opacity:1"
         id="path230-7"
         cx="232.27472"
         cy="82.68824"
         rx="1.2915788"
         ry="1.3377066" />
      <ellipse
         style="fill:#059598;fill-opacity:1;stroke:none;stroke-width:1.44;stroke-opacity:1"
         id="path230-7-7"
         cx="271.00766"
         cy="82.241898"
         rx="1.2915788"
         ry="1.3377066" />
      <ellipse
         style="fill:#059598;fill-opacity:1;stroke:none;stroke-width:1.872;stroke-opacity:1"
         id="path230-5"
         cx="238.42036"
         cy="78.910172"
         rx="1.6790525"
         ry="1.7390186" />
      <ellipse
         style="fill:#059598;fill-opacity:1;stroke:none;stroke-width:1.872;stroke-opacity:1"
         id="path230-5-5"
         cx="266.39804"
         cy="78.984818"
         rx="1.6790525"
         ry="1.7390186" />
      <ellipse
         style="fill:#059598;fill-opacity:1;stroke:none;stroke-width:2.052;stroke-opacity:1"
         id="path230-6"
         cx="245.52174"
         cy="76.739029"
         rx="1.8404999"
         ry="1.9062319" />
      <ellipse
         style="fill:#059598;fill-opacity:1;stroke:none;stroke-width:0.408;stroke-dasharray:none;stroke-opacity:1"
         id="path230-6-2"
         cx="252.93677"
         cy="75.304268"
         rx="2.3393166"
         ry="2.4228635" />
      <ellipse
         style="fill:#059598;fill-opacity:1;stroke:none;stroke-width:2.052;stroke-opacity:1"
         id="path230-6-7"
         cx="259.5817"
         cy="76.375687"
         rx="1.8404999"
         ry="1.9062319" />
      <rect
         style="fill:#059598;fill-opacity:1;stroke:none;stroke-width:0.408;stroke-dasharray:none;stroke-opacity:1"
         id="rect230"
         width="1.8082104"
         height="6.7162099"
         x="252.05161"
         y="75.944832"
         rx="2" />
    </g>
  </g>
</svg>
